<?xml version="1.0" standalone="no"?>
<!DOCTYPE svg PUBLIC "-//W3C//DTD SVG 20010904//EN"
 "http://www.w3.org/TR/2001/REC-SVG-20010904/DTD/svg10.dtd">
<svg version="1.0" xmlns="http://www.w3.org/2000/svg"
 width="158.000000pt" height="158.000000pt" viewBox="0 0 158.000000 158.000000"
 preserveAspectRatio="xMidYMid meet">
<metadata>
Created by potrace 1.11, written by Peter Selinger 2001-2013
</metadata>
<g transform="translate(0.000000,158.000000) scale(0.100000,-0.100000)"
fill="#000000" stroke="none">
<path d="M632 1535 c-154 -28 -291 -103 -407 -220 -115 -117 -186 -254 -211
-410 -13 -85 -6 -223 16 -279 5 -13 7 -26 4 -28 -7 -8 81 -172 140 -261 94
-140 199 -221 355 -274 94 -32 240 -36 341 -9 104 27 258 85 345 129 104 54
214 162 268 264 54 102 85 234 85 356 0 174 -51 305 -182 461 -150 178 -231
229 -436 272 -61 12 -249 12 -318 -1z"/>
</g>
</svg>
